<svg width="48" height="48" viewBox="0 0 48 48" xmlns="http://www.w3.org/2000/svg"><g fill="none" fill-rule="evenodd"><path d="M24 47.5c12.979 0 23.5-10.521 23.5-23.5S36.979.5 24 .5.5 11.021.5 24 11.021 47.5 24 47.5Z" stroke="#EEE"/><path d="M14 24.5a.5.5 0 0 1 .5-.5h3a.501.501 0 0 1 0 1h-3a.498.498 0 0 1-.5-.5m5 0a.5.5 0 0 1 .5-.5h3a.501.501 0 0 1 0 1h-3a.498.498 0 0 1-.5-.5m5 0c0-.276.226-.5.5-.5h3a.501.501 0 0 1 0 1h-3a.498.498 0 0 1-.5-.5m6 0c0-.276.226-.5.5-.5h3a.501.501 0 0 1 0 1h-3a.498.498 0 0 1-.5-.5" fill="#FFF"/><path d="M12 17.524c0-.854.7-1.524 1.565-1.524h20.87c.864 0 1.565.672 1.565 1.524v12.952C36 31.33 35.301 32 34.435 32h-20.87C12.701 32 12 31.328 12 30.476V17.524Z" fill="#5697FA"/><path fill="#0864EE" d="M14 22h4v-3h-4zm0 7.5a.5.5 0 0 1 .5-.5h9a.5.5 0 1 1 0 1h-9a.499.499 0 0 1-.5-.5m0-2c0-.276.246-.5.552-.5h6.896c.305 0 .552.222.552.5 0 .276-.246.5-.552.5h-6.896c-.305 0-.552-.222-.552-.5"/><path d="M14 24.5a.5.5 0 0 1 .5-.5h3a.501.501 0 0 1 0 1h-3a.498.498 0 0 1-.5-.5m5 0a.5.5 0 0 1 .5-.5h3a.501.501 0 0 1 0 1h-3a.498.498 0 0 1-.5-.5m5 0c0-.276.226-.5.5-.5h3a.501.501 0 0 1 0 1h-3a.498.498 0 0 1-.5-.5m5 0c0-.276.226-.5.5-.5h3a.501.501 0 0 1 0 1h-3a.498.498 0 0 1-.5-.5" fill="#FFF"/></g></svg>