<svg width="48" height="48" viewBox="0 0 48 48" xmlns="http://www.w3.org/2000/svg" xmlns:xlink="http://www.w3.org/1999/xlink"><defs><path d="M2.737.52A1.768 1.768 0 0 1 5.17.45a1.772 1.772 0 0 1-.071 2.432L2.882 5.1a1.772 1.772 0 0 1-2.434.07A1.772 1.772 0 0 1 .52 2.737L2.737.52Zm2.362 2.362a1.768 1.768 0 0 1 2.433-.07 1.772 1.772 0 0 1-.07 2.432L5.243 7.462a1.772 1.772 0 0 1-2.433.07 1.772 1.772 0 0 1 .071-2.433l2.217-2.217Zm2.362 2.362a1.767 1.767 0 0 1 2.434-.069c.62.696.597 1.763-.071 2.432L7.607 9.824a1.772 1.772 0 0 1-2.433.07 1.772 1.772 0 0 1 .07-2.432l2.217-2.218Zm2.363 2.363a1.768 1.768 0 0 1 2.433-.07c.62.697.597 1.763-.071 2.432l-2.217 2.217a1.771 1.771 0 0 1-2.433.07 1.772 1.772 0 0 1 .07-2.432l2.218-2.217Z" id="a"/></defs><g fill="none" fill-rule="evenodd"><path d="M24 47.5c12.979 0 23.5-10.521 23.5-23.5S36.979.5 24 .5.5 11.021.5 24 11.021 47.5 24 47.5Z" stroke="#EEE"/><path opacity=".3" d="M10.417 10.59h27.166v27.167H10.417z"/><g transform="translate(10.417 11.772)"><path fill="#5697FA" d="m9.45 0 15.354 15.355-9.45 9.449L0 9.449z"/><path d="m3.875 7.936 4.061-4.06a1.77 1.77 0 0 0 3.026 0l9.967 9.966a1.77 1.77 0 0 0 0 3.026l-4.061 4.06a1.77 1.77 0 0 0-3.026 0l-9.967-9.966a1.77 1.77 0 0 0 0-3.026Z" fill="#FFF"/><circle fill="#3483FA" cx="12.402" cy="12.402" r="4.134"/><path d="m10.523 13.868-.265.264c-.216.217-.089.618.343.613a.067.067 0 0 0 .045-.019l.358-.358c.693.553 1.471.575 1.994.052.522-.522.518-1.157-.046-2.095l-.277-.477c-.247-.486-.2-.672-.024-.847.176-.176.496-.185.795.06a1.463 1.463 0 0 1 .327.397c.122.218.215.451.278.693a.449.449 0 0 0 .115.217.433.433 0 0 0 .607 0 .412.412 0 0 0 .1-.433 2.54 2.54 0 0 0-.462-.993l.334-.334a.067.067 0 0 0 .019-.045c0-.434-.407-.55-.613-.343l-.217.217c-.676-.553-1.441-.576-1.95-.056-.51.52-.525 1.135.03 2.082l.286.469c.258.491.217.69.028.866-.217.217-.507.193-.823-.06 0 0-.042-.037-.1-.096a2.323 2.323 0 0 1-.252-.294 2.692 2.692 0 0 1-.379-1.008.433.433 0 1 0-.839.165c.078.496.28.965.588 1.363Z" fill="#FFF"/></g><path d="m30 17-1.303-1.216c-1.616-1.508-4.192-1.463-5.757.102l-3.074 3.074c1.305 1.305 4.134.59 4.134.59l1.772-1.771L33.95 26H37v-9h-7Z" fill="#0864EE"/><use fill="#0864EE" xlink:href="#a" transform="translate(13.665 22.107)"/></g></svg>