<svg xmlns:xlink="http://www.w3.org/1999/xlink" xmlns="http://www.w3.org/2000/svg" class="nc-icon" aria-labelledby="MLU1384" role="img" width="48"  height="48" ><defs><symbol id="nc-baby" viewBox="0 0 48 48"><g class="nc-icon-wrapper" fill="none" stroke-linecap="square" stroke-miterlimit="10" stroke-linejoin="miter"><path stroke="#000000" d="M32 4c0 4.4-3.6 8-8 8s-8-3.6-8-8h-6L2 8v12h8v16c4.4 0 8 3.6 8 8h12c0-4.4 3.6-8 8-8V20h8V8l-8-4h-6z" fill="none"></path><path d="M27.2 19c-1.3 0-2.5.7-3.2 1.7-.7-1-1.8-1.7-3.2-1.7-2.1 0-3.8 1.7-3.8 3.7 0 3.7 7 9.3 7 9.3s7-5.6 7-9.3c0-2-1.7-3.7-3.8-3.7z" fill="none"></path></g></symbol></defs><title id="MLU1384">Bebés</title><use xlink:href="#nc-baby" stroke="#3483FA" fill="none" stroke-width="2px">Bebés</use></svg>