<svg xmlns:xlink="http://www.w3.org/1999/xlink" xmlns="http://www.w3.org/2000/svg" class="nc-icon" aria-labelledby="MLU1743" role="img" width="48"  height="48" ><defs><symbol id="nc-car-front" viewBox="0 0 48 48"><g class="nc-icon-wrapper" fill="none" stroke-miterlimit="10" stroke-linejoin="miter"><path stroke="#000000" d="M42 20L40.231 6.736A2 2 0 0 0 38.249 5H9.751a2 2 0 0 0-1.982 1.736L6 20" stroke-linecap="butt" fill="none"></path><path stroke-linecap="square" d="M14 37v6H5v-6M43 37v6h-9v-6" fill="none"></path><path stroke="#000000" stroke-linecap="square" d="M46 37H2V26.403c0-.908.309-1.79.877-2.499L6 20h36l3.123 3.904A4 4 0 0 1 46 26.403V37z" fill="none"></path><circle stroke-linecap="square" cx="38" cy="29" r="3" fill="none"></circle><circle stroke-linecap="square" cx="10" cy="29" r="3" fill="none"></circle><path stroke-linecap="square" d="M21 29h6" fill="none"></path></g></symbol></defs><title id="MLU1743">Autos, Motos y Otros</title><use xlink:href="#nc-car-front" stroke="#3483FA" fill="none" stroke-width="2px">Autos, Motos y Otros</use></svg>